<svg xmlns:xlink="http://www.w3.org/1999/xlink" xmlns="http://www.w3.org/2000/svg" role="img" class="df-icon df-icon--bag" width="32"  height="32" ><defs><symbol id="assists" viewBox="0 0 24 24">
		<title>Assists Icon</title>
		<path d="M21,4c-0.395,0-0.771,0.081-1.115,0.22C19.539,2.944,18.385,2,17,2c-0.44,0-0.856,0.101-1.233,0.271C15.268,0.947,14,0,12.5,0c-0.981,0-1.865,0.406-2.5,1.055C9.365,0.406,8.481,0,7.5,0C5.566,0,4,1.567,4,3.5V6c-2.209,0-4,1.791-4,4v2c0,6.627,5.373,12,12,12c6.627,0,12-5.373,12-12v-2V8V7C24,5.343,22.656,4,21,4z M22,10v2c0,5.514-4.486,10-10,10C6.486,22,2,17.514,2,12v-2c0-1.103,0.897-2,2-2v3v1h2v-1V3.5C6,2.673,6.673,2,7.5,2S9,2.673,9,3.5V8h2V3.5C11,2.673,11.673,2,12.5,2S14,2.673,14,3.5V5v3h2V5c0-0.551,0.448-1,1-1s1,0.449,1,1v2v1v2h2V8V7c0-0.551,0.448-1,1-1s1,0.449,1,1v1V10z"></path>
	</symbol></defs>
										<use xlink:href="#assists" fill="#444444" stroke-width="2px"></use>
									</svg>