<svg xmlns:xlink="http://www.w3.org/1999/xlink" xmlns="http://www.w3.org/2000/svg" role="img" class="df-icon df-icon--bag" width="44"  height="50" ><defs><symbol id="award-medal" viewBox="0 0 44 50">
		<title>Award Medal Icon</title>
		<path d="M29.051,23.919L44,0h-6h-2h-6l-8,12.8L14,0H8H6H0l14.949,23.919C10.797,26.348,8,30.842,8,36c0,7.732,6.268,14,14,14s14-6.268,14-14C36,30.842,33.203,26.348,29.051,23.919z M40.392,2l-12.5,20H24.25l12.5-20H40.392zM31.055,2h3.695l-12.5,20h-3.642L31.055,2z M12.946,2l7.885,12.671L19,17.6L9.25,2H12.946z M7.25,2L18,19.2L16.25,22h-0.142L3.608,2H7.25z M22,48c-6.617,0-12-5.383-12-12s5.383-12,12-12c6.617,0,12,5.383,12,12S28.617,48,22,48z"></path>
		<path d="M22.001,27C17.029,27,13,31.029,13,36s4.029,9,9.001,9c4.97,0,9-4.029,9-9S26.971,27,22.001,27z M22.001,43C18.141,43,15,39.859,15,36s3.141-7,7.001-7c3.859,0,7,3.141,7,7S25.86,43,22.001,43z"></path>
	</symbol></defs>
										<use xlink:href="#award-medal" fill="#444444" stroke-width="2px"></use>
									</svg>