<svg xmlns:xlink="http://www.w3.org/1999/xlink" xmlns="http://www.w3.org/2000/svg" role="img" class="df-icon df-icon--bag" width="32"  height="32" ><defs><symbol id="damage" viewBox="0 0 24 24">
		<title>Damage Icon</title>
		<path d="M20.528,9.843c-0.384-0.591-0.64-1.178-0.761-1.747l-0.986-4.621l-2.617,3.9c-0.271,0.403-0.483,0.852-0.633,1.335c-0.006,0.015-0.01,0.03-0.015,0.046c-0.362-0.891-0.792-2.699-0.52-6.026L15,0l-3,1c-1.839,0.992-4.08,3.799-4.762,7.191c-0.246,1.214-0.242,2.416-0.133,3.468c-0.009-0.013-0.018-0.025-0.027-0.038c-0.094-0.139-0.248-0.396-0.442-0.838l-1.85-4.198l-1.808,4.218C2.329,12.317,2,13.709,2,14.938c0,3.58,1.942,6.49,5,7.979v-2.351c-1.867-1.247-3-3.242-3-5.628c0-1.146,0.411-2.386,0.811-3.317c0.179,0.407,0.392,0.825,0.629,1.171c1.325,1.932,3.373,2.425,3.463,2.445c0.056,0.014,0.113,0.02,0.169,0.02c0.208,0,0.407-0.083,0.547-0.229c0.178-0.189,0.228-0.452,0.132-0.686c-0.012-0.028-1.13-2.883-0.555-5.739c0.591-2.935,2.609-5.396,3.808-6.042c-0.121,1.474-0.319,5.053,0.865,7.42c0.57,1.141,1.864,2.835,1.919,2.908c0.139,0.182,0.362,0.284,0.593,0.284c0.081,0,0.162-0.013,0.242-0.039c0.308-0.101,0.506-0.377,0.484-0.679c-0.001-0.018-0.112-1.694,0.33-3.127c0.099-0.317,0.231-0.581,0.376-0.796c0.143,0.667,0.441,1.505,1.047,2.438c0.905,1.398,1.14,2.212,1.14,3.968c0,2.351-1.139,4.324-3,5.573v2.322c3.033-1.525,5-4.421,5-7.896C22,12.775,21.656,11.584,20.528,9.843z M12,17.874c-1.657,0-3,1.372-3,3.063C9,22.629,10.342,24,12,24c1.658,0,3-1.371,3-3.063C15,19.246,13.657,17.874,12,17.874z M13,21.958h-2v-2.042h2V21.958z"></path>
	</symbol></defs>
										<use xlink:href="#damage" fill="#444444" stroke-width="2px"></use>
									</svg>