<svg xmlns:xlink="http://www.w3.org/1999/xlink" xmlns="http://www.w3.org/2000/svg" role="img" class="df-icon df-icon--bag" width="32"  height="32" ><defs><symbol id="deaths" viewBox="0 0 24 24">
		<title>Deaths Icon</title>
		<path d="M11.635,2c0.146,0,0.228,0.005,0.228,0.005h0.178c0,0,0.003,0,0.011,0c0.332,0,8.375,0.09,8.375,8.886c0,0,1.289,1.295,0,2.223v1.109c0,0,1.289,1.111-0.646,2.223c-1.935,1.11-3.87,1.435-3.87,3.332c0,0-1.022,2.222-3.871,2.222c-2.875,0-3.906-2.22-3.906-2.22c0-1.896-1.953-2.221-3.905-3.329c-1.953-1.11-0.651-2.221-0.651-2.221v-1.109c-1.302-0.925,0-2.22,0-2.22C3.579,2.42,10.303,2,11.635,2 M11.635,0C7.13,0,1.892,2.692,1.592,10.215c-0.33,0.524-0.655,1.283-0.582,2.174c0.041,0.491,0.199,0.957,0.461,1.373c-0.228,0.466-0.363,1.021-0.305,1.627c0.074,0.782,0.495,1.902,2.074,2.801c0.534,0.304,1.053,0.548,1.51,0.764c0.488,0.23,1.221,0.576,1.384,0.773c-0.001,0.006,0,0.025,0,0.054v0.441l0.186,0.401C6.903,21.877,8.764,24,12.041,24c3.259,0,5.109-2.128,5.687-3.386l0.184-0.397v-0.438c0-0.055,0.006-0.078,0.006-0.078c0.122-0.163,0.867-0.519,1.36-0.753c0.454-0.217,0.97-0.462,1.499-0.767c1.566-0.899,1.983-2.017,2.058-2.796c0.059-0.608-0.076-1.164-0.304-1.631c0.261-0.417,0.419-0.882,0.459-1.373c0.073-0.89-0.25-1.649-0.577-2.173c-0.35-8.049-6.869-10.203-10.361-10.203h-0.141C11.851,0.003,11.758,0,11.635,0L11.635,0z"></path>
		<path d="M14,12l2,1h2V9L14,12z M6,13h2l2-1L6,9V13z M11,18h2v-3h-2V18z"></path>
	</symbol></defs>
										<use xlink:href="#deaths" fill="#444444" stroke-width="2px"></use>
									</svg>