<svg xmlns:xlink="http://www.w3.org/1999/xlink" xmlns="http://www.w3.org/2000/svg" role="img" class="df-icon df-icon--bag" width="44"  height="50" ><defs><symbol id="gamer-mouse" viewBox="0 0 44 50">
		<title>Gamer Mouse Icon</title>
		<path d="M27.717,3.038l9.175,6.881l-2.569,24.293C33.184,41.89,24.904,48,22,48c-2.875,0-11.124-6.113-12.323-13.795L7.108,9.919l9.174-6.881l3.928,7.856L22,14.472l1.789-3.578L27.717,3.038 M27,0l-5,10L17,0L5,9l2.693,25.463C9,43.031,17.944,50,22,50c4.055,0,13.063-6.969,14.307-15.537L39,9L27,0L27,0z"></path>
		<path d="M37.819,17h-0.998l-0.362,4.475c0.734,3.363,2.211,8.214,5.137,12.868c-1.636,2.649-6.609,9.806-12.968,10.58L26,47h1.518C37.203,47,44,34.285,44,34.285C38.518,26.25,37.819,17,37.819,17z"></path>
		<path d="M6.182,17H7.18l0.361,4.475c-0.734,3.363-2.21,8.214-5.137,12.868c1.636,2.649,6.611,9.806,12.969,10.58L18,47h-1.516C6.796,47,0,34.285,0,34.285C5.483,26.25,6.182,17,6.182,17z"></path>
		<path d="M23,24c0,0.552-0.448,1-1,1l0,0c-0.552,0-1-0.448-1-1v-4c0-0.552,0.448-1,1-1l0,0c0.552,0,1,0.448,1,1V24z"></path>
	</symbol></defs>
										<use xlink:href="#gamer-mouse" fill="#444444" stroke-width="2px"></use>
									</svg>