<svg xmlns:xlink="http://www.w3.org/1999/xlink" xmlns="http://www.w3.org/2000/svg" role="img" class="df-icon df-icon--bag" width="44"  height="50" ><defs><symbol id="gaming-chair" viewBox="0 0 44 50">
		<title>Gaming Chair Icon</title>
		<path d="M38.224,44c1.011,0.188,3.415,1.391,3.776,2.086c-0.008,0.852-0.13,1.509-0.249,1.914H2.249C2.129,47.594,2.008,46.938,2,46.086c0.36-0.695,2.765-1.896,3.775-2.086H38.224 M38.322,42H5.677C4.894,42,0,43.79,0,46c0,2.209,0.635,4,1.419,4H42.58c0.784,0,1.42-1.791,1.42-4C44,43.79,39.106,42,38.322,42L38.322,42z"></path>
		<path d="M21.596,2.002l0.05,0h0.026h0.026l0.011,0l0.275,0.005c4.428,0.078,5.907,0.361,6.397,0.525c0.207,0.382,0.258,1.218,0.289,1.742c0.022,0.363,0.043,0.706,0.097,1.041c0.008,0.052,0.844,5.223,2.009,6.583c0.726,0.846,2.837,2.794,3.705,3.527c0.335,0.284,0.712,0.531,1.111,0.792c0.419,0.275,1.291,0.847,1.407,1.101c0.153,0.946-0.366,2.87-0.87,4.73l-0.116,0.431c-0.768,2.854-1.147,4.722-0.023,9.939c0.171,0.795,0.397,1.672,0.638,2.6c0.555,2.147,1.216,4.707,1.349,6.982H6.024c0.131-2.273,0.79-4.831,1.341-6.977c0.24-0.931,0.466-1.81,0.637-2.607c1.104-5.155,0.717-7.108-0.006-9.867l-0.015-0.058l-0.192-0.728c-0.463-1.747-0.943-3.554-0.809-4.401c0.129-0.295,1.004-0.866,1.425-1.14c0.403-0.263,0.783-0.511,1.121-0.795c0.868-0.732,2.984-2.679,3.713-3.528c1.123-1.307,1.9-6.049,1.985-6.586c0.053-0.333,0.074-0.677,0.096-1.04c0.032-0.529,0.083-1.377,0.295-1.752c0.44-0.157,1.766-0.43,5.71-0.512L21.596,2.002 M22.019,0c0,0-0.132,0-0.349,0.003C21.43,0,21.284,0,21.284,0v0.01C19.537,0.046,15.129,0.145,14.278,1c-1.069,1.075-0.871,3.002-1.029,4s-0.934,4.904-1.527,5.596s-2.574,2.534-3.485,3.302c-0.911,0.769-2.982,1.642-3.22,3.101c-0.237,1.459,0.396,3.581,1.029,6c0.633,2.418,1.069,4.008,0,8.999C5.364,35.18,3.666,40.08,4.058,44h35.884c0.391-3.92-1.313-8.822-1.998-12.003c-1.073-4.983-0.661-6.542,0-8.999c0.65-2.414,1.266-4.541,1.029-6c-0.237-1.459-2.293-2.332-3.202-3.101c-0.908-0.768-2.885-2.61-3.478-3.302S30.9,5.998,30.741,5c-0.158-0.998,0.038-2.925-1.029-4c-0.859-0.866-5.812-0.959-7.693-0.992V0L22.019,0z"></path>
		<polygon points="22,33 15,29 15,31 22,35 29,31 29,29 "></polygon>
		<polygon points="22,27 15,23 15,25 22,29 29,25 29,23 "></polygon>
		<polygon points="22,21 15,17 15,19 22,23 29,19 29,17 "></polygon>
	</symbol></defs>
										<use xlink:href="#gaming-chair" fill="#444444" stroke-width="2px"></use>
									</svg>