<svg xmlns:xlink="http://www.w3.org/1999/xlink" xmlns="http://www.w3.org/2000/svg" role="img" class="df-icon df-icon--bag" width="44"  height="50" ><defs><symbol id="headset" viewBox="0 0 44 50">
		<title>Headset Icon</title>
		<path d="M10,22v16H6c-2.206,0-4-1.794-4-4v-8c0-2.205,1.794-4,4-4H10 M12,20H6c-3.313,0-6,2.687-6,6v8c0,3.313,2.687,6,6,6h6V20L12,20z"></path>
		<path d="M14,19.5v20h-2v-20H14 M14,17.5h-2c-1.104,0-2,0.896-2,2v20c0,1.104,0.896,2,2,2h2c1.104,0,2-0.896,2-2v-20C16,18.396,15.104,17.5,14,17.5L14,17.5z"></path>
		<path d="M38,22c2.205,0,4,1.794,4,4v8c0,2.206-1.795,4-4,4h-4V22H38 M38,20h-6v20h6c3.313,0,6-2.687,6-6v-8C44,22.687,41.313,20,38,20L38,20z"></path>
		<path d="M32,19.5v20h-2v-20H32 M32,17.5h-2c-1.104,0-2,0.896-2,2v20c0,1.104,0.896,2,2,2h2c1.104,0,2-0.896,2-2v-20C34,18.396,33.104,17.5,32,17.5L32,17.5z"></path>
		<path d="M22,46c0.551,0,1,0.448,1,1s-0.449,1-1,1s-1-0.448-1-1S21.449,46,22,46 M22,44c-1.656,0-3,1.343-3,3s1.344,3,3,3c1.657,0,3-1.343,3-3S23.657,44,22,44L22,44z"></path>
		<path d="M37,42v4c0,1.103-0.897,2-2,2H22v2h13c2.209,0,4-1.791,4-4v-4H37z"></path>
		<path d="M4,21.504V20c0-9.925,8.075-18,18-18c9.925,0,18,8.075,18,18v1.746l2,1.492V20C42,8.954,33.046,0,22,0S2,8.954,2,20v2.792L4,21.504z"></path>
		<path d="M4,21.504V20C4,7.01,17.777,6,22,6s18,1.01,18,14v1.746l2,1.492V20C42,8.954,33.046,4,22,4S2,8.954,2,20v2.792L4,21.504z"></path>
	</symbol></defs>
										<use xlink:href="#headset" fill="#444444" stroke-width="2px"></use>
									</svg>