<svg xmlns:xlink="http://www.w3.org/1999/xlink" xmlns="http://www.w3.org/2000/svg" role="img" class="df-icon df-icon--bag" width="32"  height="32" ><defs><symbol id="healing" viewBox="0 0 24 24">
		<title>Healing Icon</title>
		<path d="M12,24C5.373,24,0,18.628,0,12S5.373,0,12,0c6.627,0,12,5.372,12,12S18.627,24,12,24zM12,2C6.478,2,2,6.478,2,12.001C2,17.523,6.478,22,12,22s10-4.477,10-9.999C22,6.478,17.523,2,12,2zM17.898,11C17.477,8.491,15.506,6.515,13,6.091V4.094c3.613,0.455,6.479,3.292,6.932,6.906H17.898z M13,11h3v2h-3v3h-2v-3H8v-2h3V8h2V11zM6.101,11H4.069C4.521,7.386,7.387,4.548,11,4.094v1.997C8.494,6.515,6.524,8.491,6.101,11zM11,17.91v1.996c-3.613-0.454-6.479-3.291-6.931-6.905h2.032C6.524,15.509,8.494,17.486,11,17.91z M17.898,13.001h2.033c-0.453,3.614-3.318,6.451-6.932,6.905V17.91C15.506,17.486,17.477,15.509,17.898,13.001z"></path>
	</symbol></defs>
										<use xlink:href="#healing" fill="#444444" stroke-width="2px"></use>
									</svg>