<svg xmlns:xlink="http://www.w3.org/1999/xlink" xmlns="http://www.w3.org/2000/svg" role="img" class="df-icon df-icon--joystick" width="24"  height="24" >
	<defs>
		<symbol id="joystick" viewBox="0 0 24 24">
			<title>Joystick Icon</title>
			<path d="M22.091,10.091c-0.805-1.755-2.17-4.088-4.729-4.088c-1.045,0-1.944,0.401-2.737,0.755l-0.1,0.044c-0.521,0.231-1.021,0.204-1.428,0.273L11.881,7h-0.063c-0.276,0-1.261,0.117-2.329-0.355l-0.1,0.032C8.596,6.324,7.696,5.963,6.651,5.963c-2.563,0-3.93,2.348-4.735,4.099c-1.346,2.925-2.802,8.427-1.298,11.575c0.689,1.444,1.778,1.992,2.57,2.192c0.361,0.092,0.717,0.142,1.056,0.142c1.715,0,2.674-1.132,3.309-1.881c0.74-0.874,1.442-1.84,3.718-1.959L11.852,20h0.322c2.733,0,3.485,1.029,4.282,1.977c0.634,0.75,1.592,1.956,3.309,1.956c0.339,0,0.693-0.013,1.055-0.104c0.789-0.201,1.874-0.727,2.563-2.167C24.886,18.514,23.434,13.024,22.091,10.091z M20.325,21.924c-0.206,0.053-0.393-0.061-0.562-0.061c-2.101,0-1.734-3.863-7.59-3.863H12v0.254h-0.074c-5.869,0-5.541,3.719-7.646,3.719c-0.17,0-0.375-0.024-0.583-0.077c-2.769-0.702-1.703-7.181,0.044-10.979C4.78,8.661,5.704,8.001,6.656,8.001c0.651,0,1.311,0.309,2.026,0.625c1.392,0.617,2.658,0.681,3.131,0.681C11.938,9.308,12,9.304,12,9.304v0.004c0,0,0.078,0.005,0.202,0.005c0.474,0,1.746-0.065,3.133-0.683c0.714-0.318,1.375-0.626,2.024-0.626c0.949,0,1.876,0.66,2.912,2.92C22.014,14.729,23.088,21.22,20.325,21.924z"></path>
			<polygon points="9,11 7,11 7,13 5,13 5,15 7,15 7,17 9,17 9,15 11,15 11,13 9,13"></polygon>
			<polygon points="15,13 13,13 13,15 15,15 15,17 17,17 17,15 15,15"></polygon>
			<rect x="17" y="13" width="2" height="2"></rect>
			<rect x="14.999" y="10.999" width="2" height="2"></rect>
			<path d="M15,4h1h2c2.206,0,4-1.794,4-4h-2c0,1.104-0.896,2-2,2h-2h-1c-2.205,0-4,1.794-4,4h2C13,4.896,13.896,4,15,4z"></path>
		</symbol>
	</defs>
	<use xlink:href="#joystick" fill="#FFFFFF" stroke-width="2px"></use>
</svg>