<svg xmlns:xlink="http://www.w3.org/1999/xlink" xmlns="http://www.w3.org/2000/svg" role="img" class="df-icon df-icon--bag" width="44"  height="50" ><defs><symbol id="keyboard" viewBox="0 0 44 50">
		<title>Keyboard Icon</title>
		<path d="M33.416,16L42,22.22v21.93V48h-8.176l-3.446-3.42L29.793,44h-0.824H15.094h-0.811l-0.582,0.564L10.158,48H2v-3.669V22.22L10.584,16H33.416 M34.064,14H9.936L0,21.2v23.131V50h10.969l4.125-4h13.875L33,50h11v-5.85V21.2L34.064,14L34.064,14z"></path>
		<path d="M21,32.004h-2v2h2V32.004zM17,32.004h-2v2h2V32.004zM11,34.004h2v-2h-2V34.004zM7,34.004h2v-2H7V34.004zM35,34.004h2v-2h-2V34.004zM31,34.004h2v-2h-2V34.004zM29,32.004h-2v2h2V32.004zM25,32.004h-2v2h2V32.004zM21,28.002h-2v2.001h2V28.002zM17,28.002h-2v2.001h2V28.002zM11,30.003h2v-2.001h-2V30.003zM7,30.003h2v-2.001H7V30.003zM35,30.003h2v-2.001h-2V30.003zM31,30.003h2v-2.001h-2V30.003zM29,28.002h-2v2.001h2V28.002zM25,28.002h-2v2.001h2V28.002zM21,24.001h-2v2.001h2V24.001zM17,24.001h-2v2.001h2V24.001zM11,26.002h2v-2.001h-2V26.002zM7,26.002h2v-2.001H7V26.002zM35,24.001v2.001h2v-2.001H35zM31,26.002h2v-2.001h-2V26.002zM29,24.001h-2v2.001h2V24.001zM25,24.001h-2v2.001h2V24.001zM21,20h-2v2h2V20zM17,20h-2v2h2V20zM29,20h-2v2h2V20zM25,20h-2v2h2V20zM14.997,40h14.007v-1.989H14.997V40z"></path>
		<rect x="21" y="12" width="2" height="2"></rect>
		<path d="M33,0H12v2h21c1.654,0,3,1.346,3,3s-1.346,3-3,3h-3v2h3c2.762,0,5-2.239,5-5S35.762,0,33,0z"></path>
		<path d="M31,8h-6c-2.209,0-4,1.791-4,4h2c0-1.103,0.897-2,2-2h6V8z"></path>
	</symbol></defs>
										<use xlink:href="#keyboard" fill="#444444" stroke-width="2px"></use>
									</svg>