<svg xmlns:xlink="http://www.w3.org/1999/xlink" xmlns="http://www.w3.org/2000/svg" role="img" class="df-icon df-icon--logout" width="30"  height="30" ><defs><symbol id="logout" viewBox="0 0 24 24">
		<title>Logout Icon</title>
		<path d="M21.063,19.066c-3.912,3.908-10.253,3.912-14.161,0.01c-0.338-0.338-0.636-0.699-0.915-1.07h2.726c1.409,1.24,3.254,2,5.28,2c4.418,0,7.999-3.582,7.999-8c0-4.417-3.581-7.999-7.999-7.999c-2.026,0-3.871,0.758-5.28,2H5.992c0.28-0.372,0.58-0.734,0.919-1.073c3.913-3.907,10.254-3.912,14.161-0.009C24.979,8.828,24.977,15.158,21.063,19.066z M13.993,11.006v2H3.439L5,14.668l-1.25,1.33l-2.5-2.662l0,0L0,12.006l3.75-3.993L5,9.344l-1.561,1.662H13.993z"></path>
	</symbol></defs>
								<use xlink:href="#logout" fill="#FFFFFF" stroke-width="2px"></use>
							</svg>