<svg xmlns:xlink="http://www.w3.org/1999/xlink" xmlns="http://www.w3.org/2000/svg" role="img" class="df-icon df-icon--bag" width="32"  height="32" ><defs><symbol id="replay" viewBox="0 0 12 12">
		<title>Match Replay Icon</title>
		<path d="M2.647,2c0.163,0,0.351,0.049,0.555,0.153l6.251,3.2c0.703,0.356,0.739,0.938,0.035,1.295L3.203,9.847C2.998,9.951,2.81,10,2.647,10C2.251,10,2,9.71,2,9.211V2.79C2,2.29,2.251,2,2.647,2 M2.647,0C1.138,0,0,1.199,0,2.79v6.421C0,10.801,1.138,12,2.647,12c0.486,0,0.978-0.125,1.461-0.37l6.288-3.2C11.398,7.923,12,7.02,12,6.018c0-1.013-0.614-1.929-1.643-2.449L4.114,0.373C3.625,0.124,3.133,0,2.647,0L2.647,0z"></path>
	</symbol></defs>
										<use xlink:href="#replay" fill="#444444" stroke-width="2px"></use>
									</svg>