<svg xmlns:xlink="http://www.w3.org/1999/xlink" xmlns="http://www.w3.org/2000/svg" role="img" class="df-icon df-icon--overview" width="16"  height="16" ><defs><symbol id="overview" viewBox="0 0 12 12">
		<title>Match Overview Icon</title>
		<path d="M4.004,10H2.325c-0.179,0-0.286-0.087-0.32-0.262L0.018,2.286C-0.041,2.096,0.044,2,0.275,2h1.205C1.65,2,1.753,2.087,1.787,2.261l1.346,6.122h0.051L4.53,2.261C4.564,2.087,4.666,2,4.837,2h1.205c0.214,0,0.299,0.096,0.256,0.286L4.312,9.738C4.269,9.913,4.166,10,4.004,10z"></path>
		<path d="M6.349,7.96V7.71c0-0.174,0.09-0.261,0.269-0.261h1.089c0.181,0,0.27,0.087,0.27,0.261v0.1c0,0.316,0.063,0.531,0.192,0.646C8.296,8.573,8.532,8.63,8.873,8.63h0.604c0.333,0,0.565-0.061,0.698-0.187c0.133-0.123,0.198-0.356,0.198-0.694v-0.15c0-0.241-0.102-0.426-0.302-0.554c-0.2-0.128-0.45-0.206-0.75-0.23C9.022,6.79,8.701,6.742,8.354,6.672C8.009,6.601,7.686,6.51,7.387,6.397C7.088,6.286,6.838,6.066,6.638,5.739C6.437,5.411,6.336,4.99,6.336,4.476V4.041c0-0.647,0.188-1.149,0.563-1.505C7.275,2.178,7.796,2,8.463,2h1.281c0.677,0,1.2,0.178,1.577,0.535c0.375,0.356,0.563,0.858,0.563,1.505v0.236c0,0.174-0.09,0.262-0.268,0.262h-1.092c-0.178,0-0.268-0.087-0.268-0.262V4.202c0-0.324-0.065-0.543-0.192-0.66C9.937,3.427,9.702,3.369,9.361,3.369h-0.5c-0.351,0-0.589,0.064-0.712,0.193S7.963,3.941,7.963,4.314v0.237c0,0.39,0.351,0.613,1.052,0.671c0.726,0.058,1.37,0.199,1.936,0.423c0.298,0.124,0.548,0.346,0.75,0.666C11.9,6.63,12,7.038,12,7.536V7.96c0,0.646-0.187,1.148-0.563,1.505C11.062,9.821,10.54,10,9.873,10H8.477c-0.666,0-1.188-0.179-1.564-0.535S6.349,8.605,6.349,7.96z"></path>
	</symbol></defs>
												<use xlink:href="#overview" fill="#5E627E" stroke-width="2px"></use>
											</svg>