<svg xmlns:xlink="http://www.w3.org/1999/xlink" xmlns="http://www.w3.org/2000/svg" role="img" class="df-icon df-icon--bag" width="32"  height="32" ><defs><symbol id="medal" viewBox="0 0 24 24">
		<title>Medal Icon</title>
		<path d="M12,6c-4.971,0-9,4.029-9,9s4.029,9,9,9s9-4.029,9-9S16.971,6,12,6z M12,22c-3.866,0-7-3.134-7-7s3.134-7,7-7s7,3.134,7,7S15.866,22,12,22z M12,10c-2.761,0-5,2.238-5,5s2.239,5,5,5c2.762,0,5-2.238,5-5S14.762,10,12,10z M12,18c-1.657,0-3-1.343-3-3c0-1.656,1.343-3,3-3c1.656,0,3,1.344,3,3C15,16.657,13.656,18,12,18z"></path>
		<path d="M4.824,6.674L2.954,2h5.691l0.913,2.281c0.663-0.15,1.348-0.237,2.05-0.262L10,0H0l3.31,8.273C3.761,7.691,4.267,7.155,4.824,6.674z"></path>
		<path d="M14.441,4.281L15.354,2h5.692l-1.87,4.674c0.558,0.481,1.063,1.017,1.515,1.599L24,0H14l-1.608,4.02C13.094,4.044,13.779,4.131,14.441,4.281z"></path>
	</symbol></defs>
										<use xlink:href="#medal" fill="#444444" stroke-width="2px"></use>
									</svg>