<svg xmlns:xlink="http://www.w3.org/1999/xlink" xmlns="http://www.w3.org/2000/svg" role="img" class="df-icon df-icon--bag" width="44"  height="50" ><defs><symbol id="mousepad-and-mouse" viewBox="0 0 44 50">
		<title>Mousepad and Mouse Icon</title>
		<path d="M13,30l1.434,12.515C15.031,46.656,17.821,50,22,50c4.178,0,7.031-3.188,7.565-7.485L31,30l-9-4.004L13,30zM27.581,42.268C27.147,45.75,24.957,48,22,48c-3.497,0-5.191-3.087-5.583-5.743L15.154,31.23L22,28.186l6.846,3.045L27.581,42.268z"></path>
		<path d="M40,0H4C1.791,0,0,1.791,0,4v32c0,2.209,1.791,4,4,4h7v-2H4c-1.103,0-2-0.897-2-2V4c0-1.103,0.897-2,2-2h24.586L42,15.414V36c0,1.103-0.897,2-2,2h-7v2h7c2.209,0,4-1.791,4-4V4C44,1.791,42.209,0,40,0z M31.415,2H40c1.103,0,2,0.897,2,2v8.585L31.415,2z"></path>
		<path d="M21,32.969v2.063C21,35.566,21.434,36,21.969,36h0.063C22.566,36,23,35.566,23,35.031v-2.063C23,32.434,22.566,32,22.031,32h-0.063C21.434,32,21,32.434,21,32.969z"></path>
	</symbol></defs>
										<use xlink:href="#mousepad-and-mouse" fill="#444444" stroke-width="2px"></use>
									</svg>