<svg xmlns:xlink="http://www.w3.org/1999/xlink" xmlns="http://www.w3.org/2000/svg" role="img" class="df-icon df-icon--bag" width="32"  height="32" ><defs><symbol id="search" viewBox="0 0 24 24">
		<title>Search Icon</title>
		<path d="M10.02,4.007c-3.314,0-6,2.687-6,6s2.686,6,6,6c3.313,0,6-2.687,6-6S13.333,4.007,10.02,4.007z M10.02,14.007c-2.209,0-4-1.791-4-4s1.791-4,4-4s4,1.791,4,4S12.229,14.007,10.02,14.007z M17.1,2.925C13.191-0.979,6.851-0.975,2.938,2.934c-3.913,3.907-3.917,10.24-0.009,14.144s10.249,3.899,14.162-0.009S21.007,6.828,17.1,2.925z M10.02,18.007c-4.418,0-8-3.582-8-8s3.582-8,8-8s8,3.582,8,8S14.438,18.007,10.02,18.007z"></path>
		<path d="M23.121,18.879l-5.014-5.014c-0.298,0.623-0.66,1.207-1.088,1.74l4.688,4.688C21.962,20.548,22,20.846,22,21c0,0.155-0.038,0.452-0.293,0.707S21.154,22,21,22c-0.155,0-0.452-0.038-0.707-0.293l-4.69-4.689c-0.534,0.426-1.12,0.787-1.744,1.084l5.021,5.02C19.465,23.707,20.232,24,21,24s1.535-0.293,2.121-0.879C24.293,21.95,24.293,20.051,23.121,18.879z"></path>
	</symbol></defs>
										<use xlink:href="#search" fill="#444444" stroke-width="2px"></use>
									</svg>