<svg xmlns:xlink="http://www.w3.org/1999/xlink" xmlns="http://www.w3.org/2000/svg" role="img" class="df-icon df-icon--bag" width="32"  height="32" ><defs><symbol id="team-shield" viewBox="0 0 25 27">
		<title>Teah Shield</title>
		<path d="M19.5834613,0.014 L6.19992241,0.014 L6.15702242,1.25094614 C6.02967795,3.69183902 4.25027511,5.75519287 1.83606622,6.23280737 L0.890114581,6.41994951 L1.01179314,7.37956283 C2.17933011,16.5872984 5.83078867,23.8684154 13.0058242,26.8470318 L13.4080253,27.014 L14.197987,26.6734771 C21.1153659,23.5753356 24.6238074,16.4133038 25.7685263,7.37947677 L25.8901146,6.4199338 L24.9442424,6.23280737 L24.7129173,6.18175451 C22.4203586,5.62276651 20.7585273,3.62198911 20.6239234,1.25877213 L20.6155869,1.02128227 L19.5834613,1.02787548 L19.5834613,0.014 Z M8.14235882,2.08524715 L18.6369175,2.08524715 C19.0555073,4.81155158 20.9470431,7.08888376 23.5407927,7.99234235 L23.5977565,8.01004964 L23.596062,8.02610633 C22.4426803,15.8290331 19.3502628,21.9176949 13.6986368,24.6239252 L13.4004765,24.761261 L13.1294554,24.6367819 C7.56995092,21.9895167 4.4640652,16.0721495 3.25476153,8.48381319 L3.1815199,8.01004964 L3.26023442,7.98502318 C5.82360868,7.08333946 7.70324363,4.83592338 8.13534049,2.13659158 L8.14235882,2.08524715 Z" fill-rule="nonzero"></path>
		<path d="M16,7 L10,12 L13.01,14 L16,7 Z M10,18 L16,13 L12.99,11 L10,18 Z"></path>
	</symbol></defs>
										<use xlink:href="#team-shield" fill="#444444" stroke-width="2px"></use>
									</svg>