<svg xmlns:xlink="http://www.w3.org/1999/xlink" xmlns="http://www.w3.org/2000/svg" role="img" class="df-icon df-icon--bag" width="32"  height="32" ><defs><symbol id="teams-shield" viewBox="0 0 24 24">
		<title>Teams Shield Icon</title>
		<path d="M16.262,2.019c0.661,2.486,2.487,4.411,4.512,5.364c-0.923,5.411-3.218,11.682-8.761,14.422C6.45,19.059,4.15,12.79,3.227,7.382c2.024-0.953,3.85-2.877,4.511-5.364h4.276H16.262M18.046,0C18.018,0,18,0.001,18,0.005c0,0.004,0,0.009,0,0.014h0.447C18.308,0.012,18.129,0,18.046,0L18.046,0zM5.956,0C5.876,0,5.704,0.012,5.57,0.019H6c0-0.004,0-0.009,0-0.014C6,0.001,5.983,0,5.956,0L5.956,0zM18.638,0.019h-0.19c0.058,0.003,0.109,0.005,0.145,0.005C18.62,0.023,18.638,0.022,18.638,0.019L18.638,0.019z M18,0.019h-5.985h-0.002h-0.002H6c-0.007,3.151-2.54,5.62-5,5.983c0.762,5.976,3.244,14.783,11.011,17.996V24c0.001,0,0.001-0.001,0.002-0.001S12.014,24,12.015,24v-0.002C19.779,20.785,22.238,11.978,23,6.002C20.541,5.638,18.008,3.169,18,0.019L18,0.019z M5.57,0.019H5.387c0,0.003,0.017,0.005,0.044,0.005C5.464,0.023,5.514,0.021,5.57,0.019L5.57,0.019z"></path>
		<polygon points="15,6 9,10.999 10.995,12.323 9,17 15,11.999 13.005,10.675"></polygon>
	</symbol></defs>
										<use xlink:href="#teams-shield" fill="#444444" stroke-width="2px"></use>
									</svg>