<svg xmlns:xlink="http://www.w3.org/1999/xlink" xmlns="http://www.w3.org/2000/svg" role="img" class="df-icon df-icon--bag" width="32"  height="32" ><defs><symbol id="team-overview" viewBox="0 0 12 12">
		<title>Team Overview Icon</title>
		<path d="M7.714,2.009c0.439,0.951,1.172,1.72,2.02,2.243c-0.513,2.14-1.571,4.404-3.727,5.556C3.842,8.655,2.781,6.391,2.267,4.251c0.848-0.523,1.58-1.292,2.02-2.242h1.721H7.714 M9.298,0C9.282,0,9.273,0.001,9.273,0.002c0,0.002,0,0.004,0,0.007h0.243C9.44,0.006,9.344,0,9.298,0L9.298,0z M2.703,0C2.66,0,2.566,0.006,2.493,0.009h0.234c0-0.002,0-0.004,0-0.007C2.727,0.001,2.718,0,2.703,0L2.703,0z M9.62,0.009H9.517c0.031,0.001,0.06,0.002,0.079,0.002C9.611,0.012,9.62,0.011,9.62,0.009L9.62,0.009z M9.273,0.009H6.008H6.007H6.006H2.727C2.723,1.585,1.342,2.819,0,3.001c0.416,2.988,1.77,7.392,6.006,8.998V12c0,0,0,0,0.001,0s0,0,0.001,0v-0.001c4.235-1.606,5.577-6.01,5.992-8.998C10.659,2.819,9.277,1.585,9.273,0.009L9.273,0.009z M2.493,0.009h-0.1c0,0.001,0.009,0.002,0.024,0.002C2.435,0.012,2.462,0.011,2.493,0.009L2.493,0.009z"></path>
	</symbol></defs>
										<use xlink:href="#team-overview" fill="#444444" stroke-width="2px"></use>
									</svg>