<svg xmlns:xlink="http://www.w3.org/1999/xlink" xmlns="http://www.w3.org/2000/svg" role="img" class="df-icon df-icon--bag" width="32"  height="32" ><defs><symbol id="thumb-up" viewBox="0 0 24 24">
		<title>Thumb Up Icon</title>
		<path d="M22,10l0.001,12h-4V10H22 M22.001,8h-4c-1.104,0-2,0.896-2,2v12c0,1.104,0.896,2,2,2h4C23.104,24,24,23.104,24,22V10C24,8.896,23.104,8,22.001,8L22.001,8z"></path>
		<path d="M8.411,2.004c0.009,0,0.018,0,0.025,0c0.799,0.018,0.884,0.9,1.021,1.473c0.139,0.573,0.895,3.56,2.202,5.12c1.309,1.561,2.904,2.245,4.34,2.42v9.329c0,0-1.691,0.07-2.361,0.701c-0.67,0.633-2.074,0.947-3.701,0.947c-1.628,0-3.352,0-3.352,0s-0.043,0.002-0.117,0.002c-0.529,0-2.691-0.08-2.691-1.404c0,0-0.111-0.982,0.606-1.123c0,0-1.436-0.297-1.436-1.963c0,0-0.081-1.018,0.67-1.334c0,0-1.181-0.139-1.181-1.717c0,0,0.016-1.211,0.701-1.544c0,0-1.148-0.14-1.148-1.718S2.756,9.65,3.267,9.615s4.328-0.69,4.328-0.69s-0.434-2.887-0.307-4.5C7.415,2.828,7.636,2.004,8.411,2.004 M8.411,0.004L8.411,0.004c-2.778,0-3.024,3.097-3.116,4.262C5.225,5.153,5.291,6.3,5.383,7.269C4.271,7.453,3.337,7.6,3.116,7.621L3.069,7.623c-1.957,0.119-3.079,1.42-3.079,3.57c0,0.902,0.234,1.622,0.589,2.178c-0.121,0.49-0.139,0.9-0.142,1.059c0,0.904,0.233,1.627,0.588,2.186c-0.069,0.324-0.094,0.652-0.077,0.963c0.015,1.014,0.347,1.842,0.841,2.471c-0.024,0.221-0.028,0.443-0.01,0.662c0.061,1.543,1.313,3.285,4.689,3.285c0.064,0,0.113,0,0.146-0.002h3.322c1.566,0,3.694-0.25,5.008-1.432c0.217-0.102,0.796-0.203,1.138-0.219L18,22.266v-1.92v-9.329V9.246l-1.758-0.214c-0.817-0.1-2.009-0.479-3.05-1.72c-0.777-0.928-1.45-2.899-1.79-4.305l-0.037-0.165C10.868,0.539,9.522,0.028,8.48,0.005l-0.022,0L8.411,0.004L8.411,0.004z"></path>
	</symbol></defs>
										<use xlink:href="#thumb-up" fill="#444444" stroke-width="2px"></use>
									</svg>